{"title":"Tanu Weds Manu Returns(2015)1 CD x264 RK DVDSCR RIp-Team Telly E","uid":11956630,"size":731205698,"categoryP":"video","categoryS":"other","magnet":"?xt=urn:btih:db5f4e039eed152bde237711ef4ae8af77a43bc2&amp;dn=Tanu+Weds+Manu+Returns%282015%291+CD+x264+RK+DVDSCR+RIp-Team+Telly+E&amp;tr=udp%3A%2F%2Ftracker.openbittorrent.com%3A80&amp;tr=udp%3A%2F%2Fopen.demonii.com%3A1337&amp;tr=udp%3A%2F%2Ftracker.coppersurfer.tk%3A6969&amp;tr=udp%3A%2F%2Fexodus.desync.com%3A6969","seeders":2,"leechers":1,"uploader":"SS132203","files":3,"time":1432450769,"description":"Tanu Weds Manu Returns(2015)1 CD x264 RK DVDSCR RIp-Team Telly Exclusive \n &lt;a href=&quot;\nhttp://imgsparrow.co/image/hT&quot; rel=&quot;nofollow&quot; target=&quot;_NEW&quot;&gt;\nhttp://imgsparrow.co/image/hT&lt;/a&gt;\n &lt;a href=&quot;\nhttp://imgsparrow.co/image/bI&quot; rel=&quot;nofollow&quot; target=&quot;_NEW&quot;&gt;\nhttp://imgsparrow.co/image/bI&lt;/a&gt;\n\nInfo : - \n\nAll Credit Goes To Team Telly\nSample Within Torrent\n\nTelly@TellyHQ\nRuntime :: 2hr 09 MIN 40 SEC\n\nFormat                      : Matroska\nFormat version              : Version 2\nFile size                   : 687 MiB\nDuration                    : 2h 9mn\nOverall bit rate            : 740 Kbps\nEncoded date                : UTC 2015-05-23 21:43:28\nWriting application         : mkvmerge v7.7.0 ('Six Voices') 32bit built on Feb 28 2015 23:23:00\nWriting library             : libebml v1.3.1 + libmatroska v1.4.2\nDURATION                    : 02:09:48.168000000\n\nVideo\nID                          : 1\nFormat                      : MPEG-4 Visual\nFormat profile              : Advanced Simple@L5\nFormat settings, BVOP       : 2\nFormat settings, QPel       : No\nFormat settings, GMC        : No warppoints\nFormat settings, Matrix     : Default (H.263)\nCodec ID                    : V_MPEG4/ISO/ASP\nCodec ID/Info               : Advanced Simple Profile\nDuration                    : 2h 9mn\nBit rate                    : 645 Kbps\nWidth                       : 640 pixels\nHeight                      : 288 pixels\nDisplay aspect ratio        : 2.004\nOriginal display aspect rat : 1.996\nFrame rate mode             : Constant\nFrame rate                  : 29.970 fps\nColor space                 : YUV\nChroma subsampling          : 4:2:0\nBit depth                   : 8 bits\nScan type                   : Progressive\nCompression mode            : Lossy\nBits/(Pixel*Frame)          : 0.117\nStream size                 : 599 MiB (87%)\n\nAudio\nID                          : 2\nFormat                      : MPEG Audio\nFormat version              : Version 1\nFormat profile              : Layer 3\nMode                        : Joint stereo\nMode extension              : MS Stereo\nCodec ID                    : A_MPEG/L3\nCodec ID/Hint               : MP3\nDuration                    : 2h 9mn\nBit rate mode               : Constant\nBit rate                    : 80.0 Kbps\nChannel(s)                  : 2 channels\nSampling rate               : 32.0 KHz\nCompression mode            : Lossy\nStream size                 : 74.3 MiB (11%)\n\nScreens : - \n &lt;a href=&quot;\nhttp://imgsparrow.co/image/jJ&quot; rel=&quot;nofollow&quot; target=&quot;_NEW&quot;&gt;\nhttp://imgsparrow.co/image/jJ&lt;/a&gt; &lt;a href=&quot;\nhttp://imgsparrow.co/image/jU&quot; rel=&quot;nofollow&quot; target=&quot;_NEW&quot;&gt;\nhttp://imgsparrow.co/image/jU&lt;/a&gt; &lt;a href=&quot;\nhttp://imgsparrow.co/image/ju&quot; rel=&quot;nofollow&quot; target=&quot;_NEW&quot;&gt;\nhttp://imgsparrow.co/image/ju&lt;/a&gt; &lt;a href=&quot;\nhttp://imgsparrow.co/image/jw&quot; rel=&quot;nofollow&quot; target=&quot;_NEW&quot;&gt;\nhttp://imgsparrow.co/image/jw&lt;/a&gt; &lt;a href=&quot;\nhttp://imgsparrow.co/image/j4&quot; rel=&quot;nofollow&quot; target=&quot;_NEW&quot;&gt;\nhttp://imgsparrow.co/image/j4&lt;/a&gt; &lt;a href=&quot;\nhttp://imgsparrow.co/image/jH&quot; rel=&quot;nofollow&quot; target=&quot;_NEW&quot;&gt;\nhttp://imgsparrow.co/image/jH&lt;/a&gt; &lt;a href=&quot;\nhttp://imgsparrow.co/image/jT&quot; rel=&quot;nofollow&quot; target=&quot;_NEW&quot;&gt;\nhttp://imgsparrow.co/image/jT&lt;/a&gt; &lt;a href=&quot;\nhttp://imgsparrow.co/image/jb&quot; rel=&quot;nofollow&quot; target=&quot;_NEW&quot;&gt;\nhttp://imgsparrow.co/image/jb&lt;/a&gt;\n &lt;a href=&quot;\nhttp://imgsparrow.co/image/N2&quot; rel=&quot;nofollow&quot; target=&quot;_NEW&quot;&gt;\nhttp://imgsparrow.co/image/N2&lt;/a&gt;","torrent":{"xt":"urn:btih:db5f4e039eed152bde237711ef4ae8af77a43bc2","amp;dn":"Tanu+Weds+Manu+Returns%282015%291+CD+x264+RK+DVDSCR+RIp-Team+Telly+E","amp;tr":["udp%3A%2F%2Ftracker.openbittorrent.com%3A80","udp%3A%2F%2Fopen.demonii.com%3A1337","udp%3A%2F%2Ftracker.coppersurfer.tk%3A6969","udp%3A%2F%2Fexodus.desync.com%3A6969"],"infoHash":"db5f4e039eed152bde237711ef4ae8af77a43bc2","infoHashBuffer":{"type":"Buffer","data":[219,95,78,3,158,237,21,43,222,35,119,17,239,74,232,175,119,164,59,194]},"announce":[],"urlList":[]}}